<svg version="1.2" xmlns="http://www.w3.org/2000/svg" viewBox="0 0 800 501" width="800" height="501">
	<title>quran_library</title>
	<style>
		.s0 { fill-opacity: .2;fill: #cdad80 } 
		.s1 { fill: #404c6e } 
		.s2 { fill-opacity: .5;fill: #cdad80 } 
		.s3 { paint-order:stroke fill markers;stroke: #ffffff;stroke-width: 6;stroke-linejoin: round;;fill: #404c6e } 
		.s4 { paint-order:stroke fill markers;stroke: #ffffff;stroke-width: 6;stroke-linejoin: round;;fill: #cdad80 } 
	</style>
	<path id="شكل 2" fill-rule="evenodd" class="s0" d="m58 18h683c22.1 0 40 17.9 40 40v385c0 22.1-17.9 40-40 40h-683c-22.1 0-40-17.9-40-40v-385c0-22.1 17.9-40 40-40z"/>
	<path id="القرآن" class="s1" aria-label="القرآن"  d="m161.2 341.9h-27q-34.9-1.1-50.2-17.5-10.3-10.4-11.7-20-1.1-9.7-1.1-25v-22.7h-19.8q39.2-16.9 55.6-47.2l-0.2 78q3.1 16.4 28.5 18.4h25q25.2-2 28.1-18.4v-120.8q16.4 30.9 55.8 47.3h-19.8v65.4q0 15.3-1.6 25-1.4 9.6-11.5 20-15.3 16.4-50.1 17.5zm13.2-164.4l-26.9 27.2-27.3-27.2 27.3-27.2zm157.6-128.4h9q-3.2 12.4-11.5 22.5-8.3 9.9-22.5 9.9-8.3 0-19.3-5.2-11-5.4-20.9-5.4-9.9 0-14.4 10.6h-9.2q3.3-12.8 11.7-22.5 8.5-9.9 20-9.9 9.9 0 20.9 4.7 11.2 4.8 20.9 4.8 10.3 0 15.3-9.5zm-14.8 242.9h-36v-157h-19.8q38.9-16.6 55.3-47zm98.5-123.4v87.9h13.3v35.5h-13.3v13.5q0 20.9-14.6 35.1-10.8 11-25.2 13.5v21.1q-16.9-39.1-47.5-55.7h38q5.9 0 9.7-4.1 3.8-4 3.8-9.9v-67.4l-0.2-22.5h-19.8q39.2-16.4 55.8-47zm147.1-42.5l-27 27-26.8-27 26.8-27zm-53.8 0l-26.9 27-27.3-27 27.3-27zm55 30.4v100h23.9v35.6h-164.9v-35.6h26.4v-24.7q0-34 14.8-46.3 14.8-12.6 39.4-12.6 24.7 0 29.6 0 22.5 0 30.8-16.4zm-78.7 100h44.8v-46.5h-11.9q-9.9 0-16.4 0-6.6 0-11.5 4.9-5 4.7-5 18zm135.6-13.9l0.5-177q16.4 30.3 55.3 47h-19.8v130q0 20.7-14.6 35-14.6 14.4-34.9 14.4h-21.1v-35.5h21.1q5.4 0 9.5-4 4-4.1 4-9.9zm127.1 49.4h-36v-118.5-60.9h-19.8q38.9-16.7 55.3-47z"/>
	<path id="شكل 1" fill-rule="evenodd" class="s2" d="m753.6 381.2v66.8h-707.6v-66.8z"/>
	<path id="Quran Library" class="s3" aria-label="Quran Library"  d="m70.8 401.4v25q0 1.3 1.3 2.2 1.3 0.7 3.2 0.7h13.5q1.9 0 3.2-0.7 1.3-0.9 1.3-2.2v-25q0-1.3-1.3-2.1-1.3-0.8-3.2-0.8h-13.5q-1.9 0-3.2 0.8-1.3 0.8-1.3 2.1zm33.7 26.5q0.4 0.3 0.8 0.6l5-2.6q-6.6 7.9-4.8 15.2l-7.2-6.2q-4 2.1-9.3 2.1h-13.9q-6.5 0-11.1-3.1-4.6-3.1-4.6-7.5v-25q0-4.3 4.6-7.4 4.6-3.2 11.1-3.2h13.9q6.5 0 11 3.2 4.6 3.1 4.6 7.4v25q0 0.8-0.1 1.5zm36.8 1.2q7.9-0.2 8.9-3.7l0.2-36.7q5.2 6.5 17.6 10h-6.2l-0.2 25q0 3.2-0.4 5.3-0.5 2-3.7 4.3-4.9 3.5-16.2 3.7-11.3-0.2-16.2-3.7-3.2-2.3-3.7-4.3-0.4-2.1-0.4-5.3l-0.2-25h-6.2q12.4-3.5 17.6-10l0.2 36.7q1 3.5 8.9 3.7zm48.6-40.4v11.2l7.8-7.4h12.5q7.5 0 13 3.5 5.7 3.5 5.7 11.2 0 6.8-5.6 10.3-3.6 2.3-8.1 3.1l13.5 16.4h-12.8l-12.8-15.9h-13.1l0.1 15.9h-11.5v-38.3h-6.3q12.4-3.5 17.6-10zm20.3 11.4h-20.3l0.1 13.3h20.2q3.3 0 5.4-1.4 2.1-1.5 2.1-4.8 0-4.2-2.1-5.7-2.1-1.4-5.4-1.4zm56 17.8l-6-16.1-7 16.1zm2.8 7.6h-19.1l-5 11.5h-11.7l17.9-40.7-6-1.1q13.3-1.2 20.9-6.6l-2.5 5.7 4.3-1.3 17.2 44h-11.8zm38-31.3l23.8 29.4v-35q5.3 6.5 17.7 10.1h-6.3v38.3h-12.9l-22.3-26.7v26.7h-11.4v-38.3h-6.3q12.4-3.6 17.7-10.1zm103 47.1v-4.3h-0.8q-6.5 0-11.2-3.1-4.6-3-4.6-7.5v-37.8q5.3 6.6 17.7 10.1h-6.4l0.1 27.7q0 1.3 1.2 2.2 1.3 0.8 3.2 0.8h15.8q-9.8 3.5-15 11.9zm37-4.3h-11.4v-38.3h-6.3q12.3-3.5 17.5-10zm39.9-18.1h-17.9l0.1 10.4h17.8q3.3 0 5.3-1.4 2.1-1.5 2.1-3.8 0-2.3-2.1-3.8-2-1.4-5.3-1.4zm-7.2-19.1h-10.8l0.1 11.4h10.7q3.3 0 5.4-0.9 2.1-1 2.1-4.3 0-3.3-2.1-4.7-2.1-1.5-5.4-1.5zm7.2 37.2h-29.3v-38.3h-6.3q12.4-3.6 17.6-10v10.7l6.8-7.2h4q7.5 0 13 3.5 5.7 3.5 5.7 10.3 0 3.9-2.5 6.8 2.1 0.8 4.1 2 5.5 3.5 5.5 9.3 0 5.8-5.6 9.4-5.6 3.5-13 3.5zm40.5-48.3v11.2l7.8-7.5h12.5q7.5 0 13 3.6 5.7 3.5 5.7 11.2 0 6.8-5.6 10.3-3.6 2.3-8.1 3.1l13.5 16.4h-12.8l-12.8-16h-13.1l0.1 16h-11.5v-38.3h-6.3q12.4-3.6 17.6-10zm20.3 11.4h-20.3l0.1 13.3h20.2q3.3 0 5.4-1.5 2.1-1.4 2.1-4.7 0-4.2-2.1-5.7-2.1-1.4-5.4-1.4zm56 17.8l-6-16.1-7 16.1zm2.8 7.6h-19.1l-5 11.5h-11.7l17.9-40.7-6-1.1q13.3-1.3 20.9-6.6l-2.5 5.7 4.3-1.3 17.2 44h-11.8zm37.9-36.9v11.3l7.8-7.5h12.5q7.4 0 13 3.5 5.7 3.5 5.7 11.3 0 6.8-5.6 10.3-3.7 2.3-8.1 3.1l13.4 16.3h-12.8l-12.8-15.9h-13v15.9h-11.4v-38.2h-6.3q12.4-3.6 17.6-10.1zm20.3 11.4h-20.3l0.1 13.3h20.2q3.3 0 5.4-1.4 2-1.4 2-4.7 0-4.3-2-5.7-2.1-1.5-5.4-1.5zm43.7 36.9v-17.6q-6.9-0.8-10.4-3.4-3.3-2.2-3.7-4.2-0.4-2.2-0.4-5.4l0.1-1.5-0.1-6.3h-6.3q12.5-3.5 17.7-10.1v16.2h-0.1v3.5q1 3.5 9 3.7 5.6 0 7.6-1.3 1.4-1.1 1.7-2.5v-19.6q5.2 6.6 17.6 10.1h-6.2v10.9l-1 2q-1.1 2.3-4.3 4.5-3.5 2.5-9.9 3.4v17.6z"/>
	<path id="مكتبة" class="s4" aria-label="مكتبة"  d="m445.3 319.1v-13.9h-11q-2.8 0-4.6 2-1.8 1.9-1.8 5 0 3 1.8 5 1.8 1.9 4.6 1.9zm6.9-41.1l-7.5 7.5-7.4-7.5 7.4-7.5zm2.9 23.4v17.8h9.5v9.8h-30.2q-4.4 0-8.1-2.1-3.7-2.1-5.9-5.9-2.3-3.8-2.3-8.8 0-5.1 2.3-8.9 2.2-3.8 5.9-5.9 3.7-2.1 8.1-2.1l1.4 0.1 9.5 9.8v-16.8q4.5 8.4 15.2 13zm-17.8-23.4l-7.4 7.5-7.4-7.5 7.4-7.5zm52.9 51h-29.4v-9.8h8.8q1.6 0 2.7-1.1 1.1-1.1 1.1-2.7v-7.4h-5.5q10.7-4.7 15.3-13v20.4q0 2-0.5 3.8h7.5zm-6.8 9.9l-7.5 7.5-7.3-7.5 7.3-7.4zm35-9.9h-29.5v-9.8h8.9q1.5 0 2.7-1.2 1-1 1-2.6v-7.5h-5.5q10.8-4.6 15.3-13v20.5q0 2-0.4 3.8h7.5zm-15.5-44.6l-7.5 7.5-7.5-7.5 7.5-7.5zm14.8 0l-7.5 7.5-7.3-7.5 7.3-7.5zm16.5-0.1h17.4v-5.5q4.5 10.7 12.9 15.3h-28.3q-2 0-2.9 1.2-0.8 1.1-0.8 2.6 0 1.4 0.8 2.6 0.9 1.2 2.9 1.2h20.2q5.7 0 9.7 3.9 4 3.9 4 9.8 0 2.1-0.5 3.8h6.5v9.8h-58.7v-9.8h39q2.1-0.1 3-1.2 0.9-1.2 0.9-2.7 0-1.4-0.9-2.6-0.9-1.3-3-1.3l-20.2 0.2q-5.6 0-9.6-3.9-4-4-4-9.9 0-5.2 3.3-8.8 3.2-3.7 8.3-4.7zm78.7 7.4v37.3h-38.8v-9.8h7.2v-6.8q0-9.3 4.1-12.7 4.1-3.5 10.9-3.5 6.8 0 8.1 0 6.2 0 8.5-4.5zm-21.7 27.5h12.4v-12.8h-3.4q-2.6 0-4.5 0-1.8 0-3.2 1.4-1.3 1.3-1.3 4.9z"/>
</svg>