<svg version="1.2" xmlns="http://www.w3.org/2000/svg" viewBox="0 0 1080 1080" width="1080" height="1080">
	<title>syntactic_logo</title>
	<style>
		.s0 { fill: #fffffe } 
		.s1 { fill: #c39b7b } 
		.s2 { fill: #77554c } 
	</style>
	<path id="Shape 2" class="s0" d="m0 124c0-68.5 55.5-124 124-124h832c68.5 0 124 55.5 124 124v832c0 68.5-55.5 124-124 124h-832c-68.5 0-124-55.5-124-124z"/>
	<path id="Shape 2 copy" class="s1" d="m18 137c0-68.5 55.5-124 124-124h796.3c68.5 0 124 55.5 124 124v805c0 68.5-55.5 124-124 124h-796.3c-68.5 0-124-55.5-124-124z"/>
	<path id="Shape 1" class="s0" d="m539.5 1039c-276.2 0-499.5-223.3-499.5-499.5 0-276.2 223.3-499.5 499.5-499.5 276.2 0 499.5 223.3 499.5 499.5 0 276.2-223.3 499.5-499.5 499.5z"/>
	<g id="Folder 1">
		<path id="Layer" class="s2" d="m387.7 933.3c-0.4 0-0.7-0.3-0.7-0.7v-42.4c0-0.3 0.3-0.6 0.7-0.6h86.1c0.4 0 0.7 0.3 0.7 0.6v42.4c0 0.4-0.3 0.7-0.7 0.7z"/>
		<path id="Layer" class="s2" d="m561.7 845.8h-174.3q-0.1 0-0.2 0 0 0-0.1-0.1 0 0-0.1-0.1 0-0.1 0-0.1 0-48.1 0-96.9 0-1.6 0.2-3.2 1.9-16.1 14.9-25 8.5-5.8 19.5-5.8 47.9 0 96.4 0 0.2 0 0.2 0.3v43.2q0 0 0 0.1 0 0 0 0.1-0.1 0-0.1 0-0.1 0-0.1 0h-86.9q-0.1 0-0.1 0.1-0.1 0-0.1 0-0.1 0.1-0.1 0.2 0 0 0 0.1v43.1q0 0.3 0.2 0.3h174.3q0.4 0 0.4 0.3v130.6q0 0 0 0.1 0 0.1-0.1 0.1 0 0.1-0.1 0.1-0.1 0-0.2 0-42.7-0.1-85.7 0-0.6 0-1-0.1-0.1 0-0.2 0 0-0.1-0.1-0.1 0-0.1 0-0.2-0.1 0-0.1-0.1v-43q0 0 0.1-0.1 0 0 0-0.1 0 0 0.1 0 0 0 0.1 0h43.3q0 0 0.1-0.1 0 0 0 0 0 0 0.1-0.1 0 0 0 0v-43.3q0-0.3-0.3-0.3z"/>
		<path id="Layer" fill-rule="evenodd" class="s2" d="m561.7 583.4h-43.1q-0.1 0-0.1 0-0.1 0-0.2 0.1 0 0 0 0.1-0.1 0.1-0.1 0.2v86.8q0 0.1 0 0.1 0 0.1 0 0.1-0.1 0-0.1 0-0.1 0.1-0.1 0.1h-130.5q-0.1 0-0.2-0.1-0.1 0-0.1-0.1-0.1-0.1-0.1-0.1-0.1-0.1-0.1-0.2 0-48.5 0.1-96.8 0-2.1 0.1-3.2 1.9-16 14.9-24.9 8.4-5.8 19.3-5.8 26.3-0.1 52.8 0 0.1 0 0.1-0.1 0.1 0 0.1 0 0.1-0.1 0.1-0.1 0-0.1 0-0.1v-174.5q0-0.2-0.2-0.2h-43.2q-0.1 0-0.1 0-0.1 0-0.1 0.1-0.1 0.1-0.1 0.1 0 0.1 0 0.2v130.5q0 0.1-0.1 0.1 0 0.1 0 0.1-0.1 0.1-0.1 0.1-0.1 0-0.2 0h-43q-0.1 0-0.2 0 0 0-0.1-0.1 0-0.1-0.1-0.1 0-0.1 0-0.2 0-73.1 0.1-140.5 0-3 0-3.2 2.4-16.4 15-25 8.4-5.8 19.7-5.8 25.6-0.1 52.4 0 0.3 0 0.3-0.3v-130.7q0-0.3-0.2-0.3h-86.9q-0.1 0-0.2 0 0 0-0.1-0.1 0 0-0.1-0.1 0-0.1 0-0.2 0.1-4.1 0-8.3c-0.2-11.8 5.4-22.5 15-29.1q8.5-5.8 19.3-5.8 48.3-0.1 96.7-0.1 0.2 0 0.2 0.2v174.5q0 0.3 0.3 0.3h43q0.5 0 0.5-0.5v-174.3q0-0.2 0.2-0.2h43.4q0 0 0 0 0.1 0 0.1 0 0 0.1 0 0.1 0 0 0 0v218.3q0 0 0 0.1 0 0.1-0.1 0.1 0 0-0.1 0.1 0 0-0.1 0h-86.8q-0.4 0-0.4 0.4v174.3q0 0.2 0.3 0.2h43.2q0 0 0.1 0 0 0 0.1 0 0-0.1 0-0.1 0.1-0.1 0.1-0.2v-129.2q0-0.2 0.2-0.2h43.3q0.2 0 0.2 0.2v347.9q0 0 0 0.1 0 0.1-0.1 0.1 0 0.1-0.1 0.1-0.1 0-0.2 0h-42.9q-0.1 0-0.2 0 0 0-0.1-0.1-0.1 0-0.1-0.1 0-0.1 0-0.2v-174.2q0-0.3-0.3-0.3zm-130.7 0q-0.1 0-0.1 0 0 0-0.1 0.1 0 0 0 0 0 0.1 0 0.1v43.3q0 0 0 0.1 0 0 0 0.1 0.1 0 0.1 0 0 0 0.1 0h43.3q0 0 0 0 0.1 0 0.1 0 0.1-0.1 0.1-0.1 0-0.1 0-0.1v-43.3q0 0 0-0.1 0 0-0.1 0 0-0.1-0.1-0.1 0 0 0 0z"/>
		<path id="Layer" class="s1" d="m387.8 277.2c-0.4 0-0.8-0.3-0.8-0.8v-42.2c0-0.4 0.4-0.7 0.8-0.7h42.2c0.4 0 0.8 0.3 0.8 0.7v42.2c0 0.5-0.4 0.8-0.8 0.8z"/>
		<path id="Layer" class="s1" d="m650.7 933.3c-0.4 0-0.8-0.3-0.8-0.7v-86.1c0-0.4 0.4-0.7 0.8-0.7h42.3c0.3 0 0.7 0.3 0.7 0.7v86.1c0 0.4-0.4 0.7-0.7 0.7z"/>
		<path id="Layer" class="s2" d="m649.9 801.8v-655.5q0-0.1 0.1-0.1 0-0.1 0-0.1 0.1-0.1 0.1-0.1 0.1 0 0.1 0h43.2q0 0 0.1 0 0 0 0.1 0.1 0 0 0.1 0.1 0 0 0 0.1v655.5q0 0 0 0.1-0.1 0.1-0.1 0.1-0.1 0-0.1 0.1-0.1 0-0.1 0h-43.2q0 0-0.1 0 0-0.1-0.1-0.1 0-0.1 0-0.1-0.1-0.1-0.1-0.1z"/>
	</g>
</svg>