<svg height="1080" viewBox="0 0 1080 1080" width="1080" xmlns="http://www.w3.org/2000/svg"><path d="m23 73c0-27.6 22.4-50 50-50h934.5c27.6 0 50 22.4 50 50v934.5c0 27.6-22.4 50-50 50h-934.5c-27.6 0-50-22.4-50-50z" fill="#e6dac8"/><path d="m23 959h1034.5v48.5c0 27.6-22.4 50-50 50h-934.5c-27.6 0-50-22.4-50-50z" fill="#3c2a21"/><path d="m1057.5 121.5h-1034.5v-48.5c0-27.6 22.4-50 50-50h934.5c27.6 0 50 22.4 50 50z" fill="#3c2a21"/><path d="m120 287c0-27.6 22.4-50 50-50h739.9c27.7 0 50 22.4 50 50v507c0 27.6-22.3 50-50 50h-739.9c-27.6 0-50-22.4-50-50z" fill="#f7f1ec"/><g fill="#3c2a21"><path d="m902.1 562.6v45.2h-633.9v-45.2z"/><path d="m902.1 607.8h-45.3v-135.8h45.3z"/><path d="m811.6 472v135.8h-45.3v-135.8z"/><path d="m721 472v135.8h-45.3v-135.8z"/><path d="m585.2 472v135.8h-45.3v-135.8z"/><path d="m449.3 472v135.8h-45.3v-135.8z"/><path d="m313.5 472v135.8h-45.3v-135.8z"/><path d="m313.5 472v45.3h-135.9v-45.3z"/><path d="m222.9 472v226.4h-45.3v-226.4z"/><path d="m268.2 653.2v45.2h-90.6v-45.2z"/><path d="m902.1 653.2v45.2h-452.8v-45.2z"/><path d="m902.1 381.4v45.4h-316.9v-45.4z"/><path d="m268.2 381.4v45.4h-90.6v-45.4z"/></g><path d="m539.9 381.4v45.4h-45.3v-45.4z" fill="#e6dac8"/><path d="m404 381.4v45.4h-90.5v-45.4z" fill="#e6dac8"/><path d="m404 653.2v45.2h-90.5v-45.2z" fill="#e6dac8"/></svg>